PathFileType	4	(X/Y/Z)	C:/Users/beibeiliu/ov580/test_trc/User2\sequence.14_training_dense_right.trc
DataRate	CameraRate	NumFrames	NumMarkers	Units	OrigDataRate	OrigDataStartFrame	OrigNumFrames
120	120	22	19	mm	120	211	420
Frame#	Time	ThumbCMC			ThumbMCP			ThumbIP			ThumbTip			IndexMCP			IndexPIP			IndexTip			MiddleMCP			MiddlePIP			MiddleTip			RingMCP			RingPIP			RingTip			PinkyMCP			PinkyPIP			PinkyTip			BackHand1			BackHand2			BackHand3	
		X0	Y0	Z0	X1	Y1	Z1	X2	Y2	Z2	X3	Y3	Z3	X4	Y4	Z4	X5	Y5	Z5	X6	Y6	Z6	X7	Y7	Z7	X8	Y8	Z8	X9	Y9	Z9	X10	Y10	Z10	X11	Y11	Z11	X12	Y12	Z12	X13	Y13	Z13	X14	Y14	Z14	X15	Y15	Z15	X16	Y16	Z16	X17	Y17	Z17	X18	Y18	Z18	
210	1.75	36.3667	6.06526	74.4793	23.4007	-24.6894	51.4917	26.2236	-51.7062	28.336	41.6501	-67.0928	17.0801	52.7137	13.1729	-7.92283	55.3536	7.67435	-32.6171	54.8246	-0.0740489	-64.1788	71.9638	-19.6662	-13.4503	55.3093	-50.537	-14.5335	44.2751	-55.4958	22.1139	88.2882	-28.9924	-2.14811	70.8206	-59.2324	-3.70931	53.6309	-63.0293	26.757	112.063	-28.2412	16.4968	116.789	-44.4463	-7.72373	121.212	-56.8192	-28.4783	97.2841	9.63862	46.279	103.152	22.7722	78.7184	69.534	30.1696	58.5867	
211	1.75833	32.2113	3.85199	73.9725	16.7143	-28.3015	58.5139	20.1181	-58.4989	34.6766	41.6213	-76.2445	21.3303	51.9655	2.64098	-9.12356	52.7005	-4.50846	-34.0701	53.0007	-17.3006	-62.4417	68.6584	-25.8491	-8.65629	55.8439	-59.6079	-7.72238	42.8083	-60.8495	30.1471	83.4317	-40.8441	-0.637192	71.2195	-70.6871	4.37594	56.0757	-68.9081	37.1431	112.286	-38.0309	16.8745	114.491	-52.9358	-0.150048	122.211	-70.5138	-22.777	97.5786	4.53206	43.4114	104.964	16.733	77.4753	71.3798	25.5373	54.6419	
212	1.76667	32.1955	2.55325	76.6393	19.6784	-29.1803	66.0804	16.0268	-61.7637	44.7647	38.0958	-80.514	30.7552	45.918	-4.51954	-5.01065	43.6573	-15.5757	-27.8761	41.106	-31.803	-55.4941	63.1688	-36.7292	-6.06963	47.4747	-65.833	-0.863207	39.8917	-65.2833	39.0169	81.6162	-50.8835	3.39727	62.7024	-75.9045	10.9032	51.045	-72.0775	44.5386	108.787	-45.7979	18.449	111.494	-63.5052	-0.488395	114.614	-81.6709	-18.4597	97.2664	0.535678	45.1135	102.18	14.4082	73.3584	68.8386	22.6738	56.2219	
213	1.775	34.9053	4.11435	84.3231	14.5379	-29.3245	71.2144	11.6678	-61.3743	54.2056	31.7468	-80.2545	39.2832	36.651	-8.60832	4.066	29.6139	-21.9954	-21.0701	21.9343	-40.5012	-46.5379	53.2252	-37.6293	1.6669	36.0037	-71.0502	8.36831	34.6286	-64.8765	51.4989	67.669	-52.5085	7.02154	53.5977	-78.4177	15.4803	41.0434	-71.6248	52.0511	98.848	-49.8134	21.8307	101.015	-70.9522	2.84454	97.4663	-86.1055	-15.4873	95.9084	-3.73764	48.0126	106.057	11.4425	75.4539	68.9268	22.3665	61.3901	
214	1.78333	35.1277	8.87063	90.9651	14.6478	-21.7575	82.5517	3.01958	-55.6822	63.5996	16.005	-77.6664	50.6265	27.72	-6.98354	8.13214	18.0064	-20.4036	-14.1567	4.11251	-35.7642	-36.2793	39.5484	-36.9029	6.57883	24.6194	-68.31	14.5286	21.1559	-62.4343	56.4793	55.9806	-52.4961	10.6548	37.8694	-78.2062	21.2044	31.7176	-73.0507	55.6699	89.9951	-54.8286	23.165	84.2492	-74.0276	2.47886	79.7115	-90.3149	-14.7901	92.4313	-10.5803	44.9411	108.096	5.82144	70.772	71.5598	18.9042	62.7173	
215	1.79167	37.0217	13.8415	92.0017	9.98593	-14.1963	84.3571	-4.2373	-42.8371	71.716	2.36308	-68.305	56.4144	23.725	-2.7795	10.0284	8.13203	-11.1116	-11.4204	-6.43153	-24.0154	-30.8986	27.8006	-32.2275	9.70119	8.65487	-59.1912	19.5851	12.9855	-55.3982	62.419	47.2293	-52.3037	15.2645	21.3069	-70.8837	26.4875	17.4949	-65.248	58.4512	76.8103	-55.8433	24.1321	71.8054	-75.32	7.72014	63.6722	-89.1571	-9.82224	87.6605	-11.4914	48.699	105.439	1.96944	72.3599	70.2985	21.6952	61.0746	
216	1.8	38.5691	23.605	91.9403	9.50635	-0.813439	86.7374	-10.0942	-29.1881	72.3007	-9.27329	-54.3851	58.3617	23.2526	7.35224	11.8133	7.17653	-1.15302	-9.17929	-7.981	-12.1014	-30.782	26.0582	-23.2401	12.9259	-1.66842	-48.324	26.3242	-0.711516	-39.822	63.3519	34.985	-45.7331	16.783	11.4635	-61.9167	27.9321	7.13506	-51.1084	64.834	64.987	-56.7789	28.2575	51.525	-73.6547	9.51513	42.1519	-92.6201	-6.81411	83.5486	-13.3755	47.0221	105.34	-5.06973	70.6299	76.4522	19.7203	63.9557	
217	1.80833	45.3338	31.7813	88.8807	8.95203	16.0645	84.3514	-17.3341	-9.30133	69.7277	-17.1651	-34.865	60.9828	28.4887	17.2703	7.74427	10.7251	10.63	-13.8062	-5.27408	0.129969	-35.2852	22.4732	-19.791	10.3885	-7.08586	-34.2472	24.4027	-3.36429	-23.9745	64.8797	28.4613	-39.637	18.0393	1.49745	-50.635	31.8988	-2.2632	-35.7231	64.5914	54.6304	-55.7641	30.8911	39.0839	-70.7088	15.4659	25.8661	-81.3509	-1.87167	82.638	-16.9903	51.1123	103.981	-9.29781	70.9717	79.9484	20.3042	59.9873	
218	1.81667	53.9095	39.5299	82.2361	14.2887	29.1732	75.8253	-15.854	9.6654	62.6553	-22.6797	-16.0726	53.6705	39.1028	21.4583	2.0453	21.4805	16.7466	-21.4561	5.29072	5.68718	-43.8941	25.7966	-9.95971	6.44138	-8.72133	-20.1317	20.6714	-5.72878	-7.18373	60.047	25.0135	-32.8586	17.2644	-2.48274	-38.1956	28.1416	-4.71608	-20.3551	61.2173	46.8075	-48.9956	31.0087	30.7974	-65.1399	19.656	11.3232	-73.9957	-0.902033	85.1579	-16.4859	50.0685	104.916	-9.53355	73.1923	87.4329	17.8723	56.0642	
219	1.825	64.5275	43.7572	75.3963	23.1154	44.6097	66.7362	-8.06034	27.7978	52.3949	-18.6507	1.81777	46.4136	51.5091	18.1775	-3.27307	34.6439	14.3966	-30.0616	19.9088	9.20591	-50.1891	30.5712	-8.09588	0.578165	-3.58106	-7.6386	11.278	-3.97439	8.48511	48.3516	25.4325	-29.3424	14.9679	-3.08093	-22.0192	23.8926	-2.85536	-1.70738	54.9754	40.2034	-46.5341	28.35	22.7564	-55.3824	18.3104	5.34181	-66.2963	2.24577	83.1129	-20.347	49.3844	103.151	-13.6805	73.9987	94.4693	17.8971	55.6308	
220	1.83333	76.9376	48.9373	64.5106	36.7811	50.29	53.1645	2.97787	41.2812	41.6878	-10.0259	13.0383	35.0831	63.5044	18.0284	-14.5218	47.9344	13.9813	-39.8787	32.6957	9.57186	-61.4039	36.8149	-8.61938	-5.185	1.96833	4.4195	3.3123	4.92333	18.0415	39.2337	32.4876	-23.6583	10.6452	-0.109332	-13.5652	17.4843	3.5089	10.2082	44.9683	38.4788	-42.4837	27.4537	17.1763	-55.2748	14.236	4.02051	-59.3524	-2.07448	83.4104	-24.6335	47.6698	103.932	-16.7949	75.5323	99.2213	11.4189	46.1286	
221	1.84167	87.8696	46.448	54.9332	50.9742	57.3655	42.6871	19.5753	48.4578	29.5661	1.09222	21.9405	23.0766	75.1131	9.00211	-20.3668	62.5036	6.30332	-42.6106	48.694	5.18265	-68.1212	47.8442	-9.62697	-9.90447	13.7781	9.97978	-8.04671	16.3648	26.4441	26.5016	37.3815	-23.4952	6.17681	6.53921	-6.56193	8.77492	12.2794	18.207	31.993	40.2907	-44.9432	27.703	22.1284	-48.7349	10.7815	5.21692	-59.5328	-3.30149	88.7639	-26.4628	46.5068	106.117	-19.4066	73.7492	109.795	4.90592	45.1147	
222	1.85	97.5922	43.6783	47.9837	66.1909	55.5815	33.8671	31.2453	50.2015	13.2417	12.1334	29.3495	10.6966	87.7773	5.28929	-25.7859	75.4603	0.607507	-50.8764	64.5351	0.13548	-72.9206	60.743	-10.6115	-16.8404	26.507	9.35037	-18.8707	26.9379	29.4824	12.7746	44.0091	-22.8738	-4.21189	18.1249	-6.04037	-3.03953	22.4989	20.6527	23.8798	44.697	-45.1941	18.9476	27.48	-50.5444	1.51877	16.4339	-56.5619	-14.2375	91.5037	-30.3953	44.2616	106.957	-23.368	69.7556	115.872	2.84347	40.0831	
223	1.85833	103.769	40.5227	46.8402	72.5418	52.9994	23.687	44.9813	49.1231	8.30487	22.3919	24.1705	-2.49548	102.469	5.13858	-27.4189	95.1166	3.63901	-54.5686	79.7434	-2.19827	-80.1696	71.8134	-11.1809	-25.1577	38.7227	6.5945	-26.4933	36.9608	27.0522	3.23595	54.1996	-25.6411	-11.7858	30.7965	-4.82322	-14.466	30.5126	20.054	13.1781	57.9937	-41.857	16.3071	40.5704	-50.9067	-8.10985	25.8042	-60.4514	-25.7143	100.05	-28.5326	40.7602	112.977	-24.5954	68.7734	125.039	0.786476	42.9679	
224	1.86667	107.235	44.7488	46.7903	75.7057	50.4791	23.0133	48.7546	45.9323	2.77142	29.4899	25.0487	-7.99054	112.07	7.90701	-28.4493	105.338	6.7286	-55.225	95.1178	3.67765	-83.491	85.3583	-9.65827	-28.0797	48.7278	4.36445	-32.625	43.1349	27.1016	-2.57858	69.7744	-26.1509	-12.7889	40.4112	-7.84571	-22.037	38.4121	18.1334	4.15153	68.5043	-43.3306	7.52565	56.4386	-49.9383	-15.4764	46.2465	-58.7952	-33.5714	103.96	-28.5291	37.1226	113.912	-22.4228	68.9184	128.652	2.15772	44.3321	
225	1.875	101.985	47.9743	49.4203	70.6158	54.2813	27.841	45.7056	44.4485	2.3	31.1769	21.2333	-8.86892	116.16	15.1529	-25.2407	112.01	18.799	-55.3198	100.433	11.7656	-79.5393	90.1735	-4.14497	-28.407	57.0915	9.2491	-36.5514	43.4715	25.0573	-5.30353	76.1431	-22.9861	-19.4303	51.7176	-7.56863	-27.0842	36.6494	10.8434	0.446315	79.8753	-39.485	1.56561	66.8791	-51.5335	-17.2304	60.5334	-58.2807	-43.261	109.653	-19.902	35.4503	116.928	-20.7414	69.3944	130.627	10.9698	47.5243	
226	1.88333	91.2661	47.9403	60.2887	57.626	51.3432	31.3046	35.3208	41.2449	9.2975	26.5019	14.5207	-7.88939	110.604	32.1457	-18.4558	104.171	29.2348	-49.1912	93.9971	26.1935	-73.7915	87.6927	2.45318	-27.2506	53.5913	12.6298	-33.7662	38.8602	21.4091	1.18188	80.6036	-15.2273	-20.7409	53.545	-9.16406	-27.5378	37.1338	7.87018	-0.695184	86.0428	-34.9825	4.13882	78.0129	-42.7889	-21.4842	74.34	-50.8699	-43.6812	113.421	-17.3817	35.4882	120.36	-11.9229	71.0494	124.15	20.7529	49.738	
227	1.89167	77.1264	45.7563	69.4869	41.5821	45.4582	44.5501	23.9441	29.6208	17.4133	20.7157	8.66563	2.68766	94.6215	43.0833	-15.5093	84.7481	46.5756	-44.6492	71.0996	43.7817	-67.1808	80.5441	14.3514	-23.034	44.7072	15.4295	-27.6946	30.1449	15.6908	8.5094	78.4967	-5.1438	-19.0935	48.8216	-3.49372	-25.1419	30.8391	1.03534	8.92604	89.429	-26.389	-0.244051	82.278	-33.5105	-27.0339	77.2014	-40.3806	-48.9221	112.109	-5.94398	36.6779	121.583	-5.48705	71.5325	116.591	26.9254	56.8362	
228	1.9	58.4168	42.7311	76.9864	26.8631	33.553	57.6844	12.4791	17.698	27.5825	14.2594	-2.27905	6.57956	70.7427	53.417	-1.95569	59.0263	58.1304	-27.8983	38.2105	56.9209	-54.5895	67.6846	24.9336	-12.9644	32.5686	15.1033	-19.0033	20.0739	8.17987	19.0722	71.9554	6.67673	-11.8329	39.8882	-4.84106	-18.8527	25.423	-6.59943	15.6857	89.1556	-18.6139	0.52597	82.2093	-20.2367	-23.4606	76.6906	-19.7998	-50.6403	108.396	7.03196	40.4777	119.295	4.94323	70.509	101.729	40.321	60.0508	
229	1.90833	47.5503	31.7215	88.8754	17.9569	17.2473	69.6374	0.560672	3.54542	38.9497	5.0582	-13.3967	16.2702	46.0128	56.9473	9.03137	29.8105	59.9482	-14.3974	8.94249	54.1565	-40.7557	47.3542	32.901	-3.20465	15.8574	8.61219	-8.36064	14.1892	-3.37074	28.787	56.5747	12.243	-10.8412	29.3862	-5.27782	-13.3101	20.585	-16.8029	16.6174	82.0101	-9.0059	-3.54304	70.9169	-9.47084	-27.0709	66.6474	-12.0912	-50.9154	98.3567	13.5168	37.703	114.307	11.9711	72.5027	87.916	42.7527	67.756	
230	1.91667	43.5553	22.3361	89.9376	12.8743	5.6837	71.9082	-4.29315	-9.48571	46.2888	4.43581	-22.9741	19.8189	28.3155	53.407	17.5296	11.325	53.4111	-3.56647	-9.84748	52.3651	-24.5262	36.5466	26.8546	0.176892	4.67653	3.35183	-2.40863	5.98038	-13.0347	30.2944	46.8954	10.6293	-4.1129	21.2457	-11.5727	-8.21792	16.4942	-22.7347	25.8469	72.9466	-7.0419	-2.02097	64.6912	-11.9807	-26.0559	58.2965	-13.0734	-45.1055	92.793	13.3104	42.1554	110.913	11.0033	70.7258	77.4848	38.8766	72.4515	
231	1.925	37.0994	18.1435	94.6183	6.43412	0.219428	74.2655	-11.1015	-15.4113	49.1509	0.499711	-28.859	22.4073	20.6637	48.9474	20.4503	-0.558163	50.6898	-3.19287	-16.3153	46.6486	-25.5491	30.9403	19.6841	0.800738	1.8921	-5.07966	-0.639445	5.89506	-22.7462	31.5568	42.0041	4.69398	-3.10386	18.8398	-15.0663	-8.13286	15.3168	-31.8445	23.4159	72.9177	-12.8629	0.300488	61.4902	-17.3668	-25.6909	53.9595	-14.8495	-45.6985	87.1703	12.3424	42.5086	105.596	10.7803	67.9351	74.323	34.1189	69.4391	
